# xmcd
#
# Track frame offsets:
#	150
#	14066
#	27400
#	42736
#	57178
#	75340
#	90894
#	107922
#	120981
#	136551
#	150418
#	171034
#	186685
#	205823
#	220092
#	235827
#	249939
#	269063
#
# Disc length: 3758 seconds
#
# Revision: 1
# Processed by: cddbd v1.5.2PL0 Copyright (c) Steve Scherf et al.
# Submitted via: audiograbber 1.83.01
#
DISCID=ee0eac12
DTITLE=Various Artist - Gewoon Gezellig 2 CD1
DYEAR=2008
DGENRE=Nederlandstalig
TTITLE0=Frank v Etten - Lichtjes in je ogen
TTITLE1=Bouke - Ik kan jou niet vertrouwen
TTITLE2=Doenja - Tranen in m'n ogen
TTITLE3=Johnny Sleegers - Door jou
TTITLE4=Frans Duyts - Blijf bij mij
TTITLE5=Joan - De beste
TTITLE6=Rob Zorn - Een trein naar Niemandsland
TTITLE7=Janske - Jij ben alles wat ik wil
TTITLE8=Hans v Seggelen - Adios tot ziens in mexico
TTITLE9=Jimmy  - Jij en ik
TTITLE10=Wolter Kroes - Laat me los
TTITLE11=A Schilder en John de Bever - Toen kwam jij
TTITLE12=Rob v Daal - Als de maan weer aan de hemel staat
TTITLE13=Lets Dance - Bedondert
TTITLE14=Wim Florack - Zon Zee en strand
TTITLE15=Wesley - He Schat
TTITLE16=Ghijs de Bruijn - Ik beleef mijn dromen
TTITLE17=Mary - Baila me
EXTD=
EXTT0=
EXTT1=
EXTT2=
EXTT3=
EXTT4=
EXTT5=
EXTT6=
EXTT7=
EXTT8=
EXTT9=
EXTT10=
EXTT11=
EXTT12=
EXTT13=
EXTT14=
EXTT15=
EXTT16=
EXTT17=
PLAYORDER=
